<?xml version="1.0" standalone="no"?>
<!DOCTYPE svg PUBLIC "-//W3C//DTD SVG 20010904//EN"
 "http://www.w3.org/TR/2001/REC-SVG-20010904/DTD/svg10.dtd">
<svg version="1.0" xmlns="http://www.w3.org/2000/svg"
 width="512.000000pt" height="512.000000pt" viewBox="0 0 512.000000 512.000000"
 preserveAspectRatio="xMidYMid meet">
<metadata>
Created by potrace 1.14, written by Peter Selinger 2001-2017
</metadata>
<g transform="translate(0.000000,512.000000) scale(0.100000,-0.100000)"
fill="#000000" stroke="none">
<path d="M1241 4227 c-24 -12 -57 -42 -75 -65 l-31 -44 0 -441 0 -442 173 -3
172 -2 0 510 0 510 -98 0 c-83 0 -106 -4 -141 -23z"/>
<path d="M2324 3990 c-11 -4 -33 -22 -47 -40 -27 -31 -27 -32 -27 -200 l0
-168 32 -27 c30 -25 36 -26 122 -23 l91 3 3 -97 3 -97 -48 -6 c-97 -13 -160
-28 -250 -60 l-91 -33 -63 100 c-34 55 -68 102 -75 105 -14 5 -304 -212 -304
-228 0 -10 109 -142 122 -147 21 -9 3 -44 -41 -84 l-50 -45 -137 -6 c-75 -4
-204 -7 -286 -7 l-148 0 0 -962 c0 -914 1 -965 19 -1003 44 -95 107 -131 239
-136 l93 -4 -3 602 c-2 331 -2 600 0 598 2 -2 10 -29 19 -62 71 -274 327 -569
605 -698 370 -171 808 -120 1140 132 351 267 510 706 404 1118 -44 168 -165
385 -275 489 -17 17 -31 34 -31 39 0 5 29 43 65 84 36 41 63 79 59 84 -10 16
-293 239 -304 239 -5 0 -40 -45 -76 -100 -37 -55 -71 -100 -77 -100 -5 0 -39
11 -76 24 -68 24 -179 50 -263 61 l-48 6 0 100 0 100 99 -7 100 -7 30 31 31
30 0 165 c0 153 -1 166 -22 192 -39 50 -68 55 -300 54 -117 0 -222 -4 -234 -9z
m407 -725 c401 -69 715 -333 842 -705 54 -160 62 -404 17 -560 -75 -260 -253
-487 -495 -632 -184 -111 -453 -168 -656 -139 -240 34 -427 123 -596 284 -339
322 -426 786 -223 1192 109 220 334 419 577 511 159 61 362 79 534 49z m-1126
-445 c4 -6 -14 -50 -39 -99 -25 -48 -55 -123 -67 -167 -12 -43 -22 -80 -23
-81 -1 -1 2 349 3 355 2 8 121 0 126 -8z"/>
<path d="M2360 3087 c-164 -45 -286 -113 -398 -221 -176 -168 -258 -345 -269
-576 -6 -135 14 -237 73 -376 101 -235 316 -426 559 -496 69 -20 102 -23 240
-23 158 0 161 0 262 36 143 51 242 110 345 208 177 167 269 379 269 615 0 227
-71 403 -230 569 -122 128 -235 199 -401 252 -71 23 -107 28 -225 31 -124 4
-150 2 -225 -19z m358 -53 c282 -58 538 -274 627 -531 84 -239 34 -526 -128
-740 -41 -54 -139 -142 -196 -176 -30 -17 -31 -17 -31 0 0 26 -77 143 -94 143
-7 0 -18 -6 -24 -13 -14 -16 4 -53 54 -114 45 -54 40 -61 -68 -103 -113 -43
-243 -64 -342 -55 -347 30 -614 240 -729 573 -54 156 -47 378 16 527 85 203
284 389 492 460 136 46 288 57 423 29z"/>
<path d="M2544 3017 c-3 -8 -4 -51 -2 -98 3 -73 5 -84 22 -87 10 -2 22 2 27
10 10 15 12 148 3 172 -7 19 -43 21 -50 3z"/>
<path d="M2915 2889 c-36 -43 -68 -108 -61 -125 3 -8 14 -14 25 -14 21 0 84
93 96 143 6 23 4 27 -13 27 -11 0 -32 -14 -47 -31z"/>
<path d="M2160 2891 c0 -28 68 -141 84 -141 8 0 19 6 25 14 14 17 8 32 -41
104 -31 45 -68 58 -68 23z"/>
<path d="M3205 2631 c-16 -10 -38 -28 -49 -39 -20 -23 -16 -52 8 -52 22 0 111
85 102 98 -10 17 -26 15 -61 -7z"/>
<path d="M1872 2618 c3 -24 80 -88 104 -88 45 0 12 64 -48 96 -40 21 -60 18
-56 -8z"/>
<path d="M2850 2514 c-63 -47 -148 -110 -188 -140 -41 -30 -81 -54 -91 -54 -9
0 -75 42 -148 94 -180 129 -167 124 -208 83 -19 -19 -35 -42 -35 -51 0 -8 55
-57 122 -108 67 -51 145 -115 173 -142 82 -79 103 -79 198 1 24 21 119 93 210
161 148 109 167 126 167 152 0 29 -50 91 -73 89 -7 0 -64 -39 -127 -85z m147
20 c7 -19 -3 -28 -200 -170 -116 -84 -151 -104 -160 -95 -15 16 27 55 158 146
50 35 108 79 130 99 44 39 63 44 72 20z m-618 -135 c79 -60 121 -98 121 -110
0 -28 -13 -24 -88 28 -157 109 -196 146 -175 166 12 13 22 7 142 -84z m221
-155 c11 -12 10 -18 -3 -31 -18 -18 -44 -12 -54 13 -11 30 35 45 57 18z"/>
<path d="M1793 2263 c-27 -5 -31 -38 -7 -47 9 -3 47 -6 85 -6 74 0 95 14 69
45 -12 15 -91 19 -147 8z"/>
<path d="M3200 2255 c-26 -32 -5 -45 73 -45 82 0 112 15 87 45 -17 21 -143 21
-160 0z"/>
<path d="M3130 1955 c-7 -8 -10 -21 -7 -29 9 -22 114 -89 126 -81 21 12 11 44
-21 68 -73 54 -84 59 -98 42z"/>
<path d="M1932 1924 c-47 -40 -58 -80 -19 -68 42 13 102 59 105 82 5 35 -37
28 -86 -14z"/>
<path d="M2217 1698 c-35 -47 -69 -117 -62 -128 13 -21 37 -7 80 48 31 39 45
65 43 82 -4 37 -32 36 -61 -2z"/>
<path d="M2551 1646 c-8 -9 -11 -46 -9 -103 3 -86 3 -88 28 -88 25 0 25 2 28
88 3 83 -5 117 -28 117 -4 0 -13 -6 -19 -14z"/>
</g>
</svg>
